<svg data-v-423bf9ae="" xmlns="http://www.w3.org/2000/svg" viewBox="0 0 504 90" class="iconLeft"><!----><!----><!----><g data-v-423bf9ae="" id="3aca4d91-7df9-4841-aa43-96edcdaadd80" fill="#12262A" transform="matrix(4.357298631868611,0,0,4.357298631868611,104.81482653755461,1.7538128021743304)"><path d="M1.19 13.78L2.80 13.78L2.80 10.15L4.16 10.15L6.15 13.78L7.97 13.78L5.77 9.90C6.87 9.52 7.60 8.67 7.60 7.27C7.60 5.21 6.13 4.54 4.24 4.54L1.19 4.54ZM2.80 8.85L2.80 5.82L4.07 5.82C5.33 5.82 6.01 6.19 6.01 7.27C6.01 8.32 5.33 8.85 4.07 8.85ZM12.73 5.42C13.41 5.42 13.92 4.96 13.92 4.24C13.92 3.53 13.41 3.04 12.73 3.04C12.05 3.04 11.54 3.53 11.54 4.24C11.54 4.96 12.05 5.42 12.73 5.42ZM9.53 13.78L16.16 13.78L16.16 12.46L13.65 12.46L13.65 6.64L9.53 6.64L9.53 7.91L12.04 7.91L12.04 12.46L9.53 12.46ZM18.72 16.81C20.37 16.81 21.20 15.82 21.78 14.24L24.65 6.64L23.14 6.64L21.88 10.21C21.66 10.88 21.42 11.62 21.21 12.31L21.15 12.31C20.90 11.59 20.64 10.85 20.38 10.21L18.97 6.64L17.36 6.64L20.45 13.71L20.24 14.25C19.99 14.90 19.50 15.53 18.62 15.53C18.42 15.53 18.23 15.50 18.05 15.44L17.74 16.67C18.00 16.76 18.35 16.81 18.72 16.81ZM28.49 13.96C29.43 13.96 30.34 13.45 31.07 12.88L31.12 12.88L31.25 13.78L32.55 13.78L32.55 9.52C32.55 7.56 31.51 6.45 29.61 6.45C28.42 6.45 27.36 6.94 26.75 7.46L27.34 8.53C27.83 8.12 28.53 7.76 29.30 7.76C30.44 7.76 30.90 8.39 30.95 9.21C27.55 9.48 26.19 10.26 26.19 11.87C26.19 13.10 27.16 13.96 28.49 13.96ZM28.98 12.68C28.29 12.68 27.75 12.40 27.75 11.75C27.75 10.95 28.48 10.40 30.95 10.22L30.95 11.79C30.32 12.35 29.67 12.68 28.98 12.68ZM34.59 13.78L41.12 13.78L41.12 12.50L36.83 12.50L40.99 7.49L40.99 6.64L35.07 6.64L35.07 7.91L38.74 7.91L34.59 12.91ZM54.63 13.94C56.63 13.94 57.81 12.78 57.81 10.25L57.81 4.54L56.24 4.54L56.24 10.36C56.24 11.89 55.61 12.54 54.63 12.54C53.63 12.54 53.02 11.89 53.02 10.36L53.02 4.54L51.41 4.54L51.41 10.25C51.41 12.78 52.61 13.94 54.63 13.94ZM62.50 13.96C63.27 13.96 64.02 13.48 64.57 12.92L64.61 12.92L64.74 13.78L66.05 13.78L66.05 3.63L64.44 3.63L64.44 6.09L64.50 7.32C63.94 6.79 63.39 6.45 62.58 6.45C61.03 6.45 59.56 7.88 59.56 10.21C59.56 12.57 60.72 13.96 62.50 13.96ZM62.87 12.63C61.82 12.63 61.21 11.76 61.21 10.19C61.21 8.68 62.01 7.78 62.97 7.78C63.46 7.78 63.95 7.97 64.44 8.46L64.44 11.73C63.97 12.33 63.45 12.63 62.87 12.63ZM70.90 13.96C71.67 13.96 72.42 13.48 72.97 12.92L73.01 12.92L73.14 13.78L74.45 13.78L74.45 3.63L72.84 3.63L72.84 6.09L72.90 7.32C72.34 6.79 71.79 6.45 70.98 6.45C69.43 6.45 67.96 7.88 67.96 10.21C67.96 12.57 69.12 13.96 70.90 13.96ZM71.27 12.63C70.22 12.63 69.61 11.76 69.61 10.19C69.61 8.68 70.41 7.78 71.37 7.78C71.86 7.78 72.35 7.97 72.84 8.46L72.84 11.73C72.37 12.33 71.85 12.63 71.27 12.63ZM79.93 5.42C80.61 5.42 81.12 4.96 81.12 4.24C81.12 3.53 80.61 3.04 79.93 3.04C79.25 3.04 78.74 3.53 78.74 4.24C78.74 4.96 79.25 5.42 79.93 5.42ZM76.73 13.78L83.36 13.78L83.36 12.46L80.85 12.46L80.85 6.64L76.73 6.64L76.73 7.91L79.24 7.91L79.24 12.46L76.73 12.46ZM85.16 13.78L86.76 13.78L86.76 8.89C87.40 8.19 87.86 7.83 88.55 7.83C89.49 7.83 89.84 8.39 89.84 9.56L89.84 13.78L91.45 13.78L91.45 9.35C91.45 7.50 90.72 6.45 89.14 6.45C88.09 6.45 87.32 7.03 86.66 7.74L86.60 7.74L86.48 6.64L85.16 6.64Z"></path></g><defs data-v-423bf9ae=""><linearGradient data-v-423bf9ae="" gradientTransform="rotate(25)" id="2f7f9771-43eb-40ae-b0fa-1d9cbf37e343" x1="0%" y1="0%" x2="100%" y2="0%"><stop data-v-423bf9ae="" offset="0%" style="stop-color: rgb(32, 72, 79); stop-opacity: 1;"></stop><stop data-v-423bf9ae="" offset="100%" style="stop-color: rgb(78, 155, 171); stop-opacity: 1;"></stop></linearGradient></defs><g data-v-423bf9ae="" id="9f7562c0-19b7-4ba9-87b1-8e4e10eb4e1e" transform="matrix(2.8125,0,0,2.8125,0,0)" stroke="none" fill="url(#2f7f9771-43eb-40ae-b0fa-1d9cbf37e343)"><path d="M0 16.024L15.976 32 32 15.976 16.024 0 0 16.024zm15.989 7.323l-7.336-7.336 14.694-.022-7.358 7.358z"></path></g><!----></svg>